<svg width="35" height="35" viewBox="0 0 35 35" fill="none" xmlns="http://www.w3.org/2000/svg">
<path fill-rule="evenodd" clip-rule="evenodd" d="M15.3127 2.9165C13.3361 2.91667 11.3882 3.38954 9.63145 4.29564C7.87474 5.20175 6.36017 6.51482 5.21413 8.12531C4.06809 9.7358 3.3238 11.597 3.04336 13.5537C2.76292 15.5103 2.95447 17.5056 3.60201 19.3732C4.24955 21.2407 5.33432 22.9264 6.7658 24.2894C8.19729 25.6525 9.93398 26.6535 11.831 27.2088C13.728 27.7642 15.7303 27.8579 17.6709 27.482C19.6115 27.1061 21.434 26.2717 22.9865 25.0482L28.3123 30.374C28.5874 30.6397 28.9558 30.7866 29.3381 30.7833C29.7205 30.78 30.0863 30.6266 30.3566 30.3562C30.627 30.0859 30.7804 29.7201 30.7837 29.3377C30.7871 28.9553 30.6401 28.587 30.3744 28.3119L25.0486 22.9861C26.4894 21.1582 27.3865 18.9617 27.6373 16.6478C27.888 14.3339 27.4822 11.9961 26.4664 9.90206C25.4506 7.808 23.8657 6.04223 21.8932 4.80684C19.9207 3.57145 17.6402 2.91635 15.3127 2.9165ZM5.83358 15.3123C5.83358 12.7983 6.83228 10.3872 8.60996 8.60955C10.3877 6.83187 12.7987 5.83317 15.3127 5.83317C17.8268 5.83317 20.2378 6.83187 22.0155 8.60955C23.7932 10.3872 24.7919 12.7983 24.7919 15.3123C24.7919 17.8264 23.7932 20.2374 22.0155 22.0151C20.2378 23.7928 17.8268 24.7915 15.3127 24.7915C12.7987 24.7915 10.3877 23.7928 8.60996 22.0151C6.83228 20.2374 5.83358 17.8264 5.83358 15.3123Z" fill="#AB8E66"/>
</svg>
