<svg width="35" height="31" viewBox="0 0 35 31" fill="none" xmlns="http://www.w3.org/2000/svg">
<path d="M25.4545 0.5C22.1136 0.5 19.2086 2.01097 17.5 4.54309C15.7914 2.01097 12.8864 0.5 9.54545 0.5C7.01475 0.502956 4.58854 1.51251 2.79905 3.30719C1.00957 5.10188 0.00294734 7.53514 0 10.0732C0 14.7322 2.89545 19.581 8.60682 24.4825C11.224 26.719 14.0509 28.6961 17.0482 30.386C17.1871 30.4608 17.3423 30.5 17.5 30.5C17.6577 30.5 17.8129 30.4608 17.9518 30.386C20.9491 28.6961 23.776 26.719 26.3932 24.4825C32.1045 19.581 35 14.7322 35 10.0732C34.9971 7.53514 33.9904 5.10188 32.2009 3.30719C30.4115 1.51251 27.9853 0.502956 25.4545 0.5ZM17.5 28.4394C14.8893 26.9284 1.90909 18.9635 1.90909 10.0732C1.9112 8.04268 2.71642 6.09592 4.14806 4.66012C5.5797 3.22431 7.52081 2.41675 9.54545 2.41464C12.7718 2.41464 15.4811 4.14261 16.617 6.92522C16.689 7.1008 16.8113 7.25098 16.9685 7.35667C17.1257 7.46236 17.3107 7.51879 17.5 7.51879C17.6893 7.51879 17.8743 7.46236 18.0315 7.35667C18.1887 7.25098 18.311 7.1008 18.383 6.92522C19.5189 4.14261 22.2282 2.41464 25.4545 2.41464C27.4792 2.41675 29.4203 3.22431 30.8519 4.66012C32.2836 6.09592 33.0888 8.04268 33.0909 10.0732C33.0909 18.9635 20.1107 26.9284 17.5 28.4394Z" fill="#AB8E66"/>
</svg>
